<mxfile host="app.diagrams.net" agent="Mozilla/5.0 (Macintosh; Intel Mac OS X 10_15_7) AppleWebKit/537.36 (KHTML, like Gecko) Chrome/133.0.0.0 Safari/537.36" version="26.0.10">
  <diagram name="Страница — 1" id="bmZnHrWG6NSildpcEUoA">
    <mxGraphModel dx="2074" dy="1059" grid="1" gridSize="10" guides="1" tooltips="1" connect="1" arrows="1" fold="1" page="1" pageScale="1" pageWidth="827" pageHeight="1169" math="0" shadow="0">
      <root>
        <mxCell id="0" />
        <mxCell id="1" parent="0" />
        <mxCell id="oqrN8pZw_7ueJr-Q7pR7-9" style="edgeStyle=orthogonalEdgeStyle;rounded=0;orthogonalLoop=1;jettySize=auto;html=1;entryX=0;entryY=0.5;entryDx=0;entryDy=0;" edge="1" parent="1" source="oqrN8pZw_7ueJr-Q7pR7-1" target="oqrN8pZw_7ueJr-Q7pR7-3">
          <mxGeometry relative="1" as="geometry" />
        </mxCell>
        <mxCell id="oqrN8pZw_7ueJr-Q7pR7-10" style="edgeStyle=orthogonalEdgeStyle;rounded=0;orthogonalLoop=1;jettySize=auto;html=1;exitX=1;exitY=0.5;exitDx=0;exitDy=0;entryX=0;entryY=0.5;entryDx=0;entryDy=0;" edge="1" parent="1" source="oqrN8pZw_7ueJr-Q7pR7-1" target="oqrN8pZw_7ueJr-Q7pR7-2">
          <mxGeometry relative="1" as="geometry" />
        </mxCell>
        <mxCell id="oqrN8pZw_7ueJr-Q7pR7-11" style="edgeStyle=orthogonalEdgeStyle;rounded=0;orthogonalLoop=1;jettySize=auto;html=1;entryX=0;entryY=0.5;entryDx=0;entryDy=0;" edge="1" parent="1" source="oqrN8pZw_7ueJr-Q7pR7-1" target="oqrN8pZw_7ueJr-Q7pR7-5">
          <mxGeometry relative="1" as="geometry" />
        </mxCell>
        <mxCell id="oqrN8pZw_7ueJr-Q7pR7-12" style="edgeStyle=orthogonalEdgeStyle;rounded=0;orthogonalLoop=1;jettySize=auto;html=1;entryX=0;entryY=0.5;entryDx=0;entryDy=0;" edge="1" parent="1" source="oqrN8pZw_7ueJr-Q7pR7-1" target="oqrN8pZw_7ueJr-Q7pR7-4">
          <mxGeometry relative="1" as="geometry" />
        </mxCell>
        <mxCell id="oqrN8pZw_7ueJr-Q7pR7-1" value="Gateway" style="rounded=0;whiteSpace=wrap;html=1;" vertex="1" parent="1">
          <mxGeometry x="40" y="280" width="120" height="80" as="geometry" />
        </mxCell>
        <mxCell id="oqrN8pZw_7ueJr-Q7pR7-18" style="edgeStyle=orthogonalEdgeStyle;rounded=0;orthogonalLoop=1;jettySize=auto;html=1;entryX=0;entryY=0;entryDx=0;entryDy=0;" edge="1" parent="1" source="oqrN8pZw_7ueJr-Q7pR7-2" target="oqrN8pZw_7ueJr-Q7pR7-6">
          <mxGeometry relative="1" as="geometry" />
        </mxCell>
        <mxCell id="oqrN8pZw_7ueJr-Q7pR7-2" value="Billing" style="rounded=0;whiteSpace=wrap;html=1;" vertex="1" parent="1">
          <mxGeometry x="280" y="220" width="120" height="80" as="geometry" />
        </mxCell>
        <mxCell id="oqrN8pZw_7ueJr-Q7pR7-16" style="edgeStyle=orthogonalEdgeStyle;rounded=0;orthogonalLoop=1;jettySize=auto;html=1;entryX=0.5;entryY=1;entryDx=0;entryDy=0;" edge="1" parent="1" source="oqrN8pZw_7ueJr-Q7pR7-3" target="oqrN8pZw_7ueJr-Q7pR7-6">
          <mxGeometry relative="1" as="geometry" />
        </mxCell>
        <mxCell id="oqrN8pZw_7ueJr-Q7pR7-3" value="Order" style="rounded=0;whiteSpace=wrap;html=1;" vertex="1" parent="1">
          <mxGeometry x="280" y="360" width="120" height="80" as="geometry" />
        </mxCell>
        <mxCell id="oqrN8pZw_7ueJr-Q7pR7-13" style="edgeStyle=orthogonalEdgeStyle;rounded=0;orthogonalLoop=1;jettySize=auto;html=1;entryX=0.5;entryY=0;entryDx=0;entryDy=0;" edge="1" parent="1" source="oqrN8pZw_7ueJr-Q7pR7-4" target="oqrN8pZw_7ueJr-Q7pR7-6">
          <mxGeometry relative="1" as="geometry" />
        </mxCell>
        <mxCell id="oqrN8pZw_7ueJr-Q7pR7-4" value="User" style="rounded=0;whiteSpace=wrap;html=1;" vertex="1" parent="1">
          <mxGeometry x="280" y="80" width="120" height="80" as="geometry" />
        </mxCell>
        <mxCell id="oqrN8pZw_7ueJr-Q7pR7-5" value="Notification" style="rounded=0;whiteSpace=wrap;html=1;" vertex="1" parent="1">
          <mxGeometry x="280" y="480" width="120" height="80" as="geometry" />
        </mxCell>
        <mxCell id="oqrN8pZw_7ueJr-Q7pR7-6" value="Kafka" style="rounded=1;whiteSpace=wrap;html=1;" vertex="1" parent="1">
          <mxGeometry x="560" y="280" width="120" height="80" as="geometry" />
        </mxCell>
        <mxCell id="oqrN8pZw_7ueJr-Q7pR7-14" value="produce user.created" style="text;html=1;align=center;verticalAlign=middle;resizable=0;points=[];autosize=1;strokeColor=none;fillColor=none;" vertex="1" parent="1">
          <mxGeometry x="445" y="90" width="140" height="30" as="geometry" />
        </mxCell>
        <mxCell id="oqrN8pZw_7ueJr-Q7pR7-17" value="produce order.created" style="text;html=1;align=center;verticalAlign=middle;resizable=0;points=[];autosize=1;strokeColor=none;fillColor=none;" vertex="1" parent="1">
          <mxGeometry x="445" y="368" width="140" height="30" as="geometry" />
        </mxCell>
        <mxCell id="oqrN8pZw_7ueJr-Q7pR7-19" value="consume user.created" style="text;html=1;align=center;verticalAlign=middle;resizable=0;points=[];autosize=1;strokeColor=none;fillColor=none;" vertex="1" parent="1">
          <mxGeometry x="405" y="230" width="140" height="30" as="geometry" />
        </mxCell>
        <mxCell id="oqrN8pZw_7ueJr-Q7pR7-20" style="edgeStyle=orthogonalEdgeStyle;rounded=0;orthogonalLoop=1;jettySize=auto;html=1;entryX=0.867;entryY=1.013;entryDx=0;entryDy=0;entryPerimeter=0;" edge="1" parent="1" source="oqrN8pZw_7ueJr-Q7pR7-5" target="oqrN8pZw_7ueJr-Q7pR7-6">
          <mxGeometry relative="1" as="geometry" />
        </mxCell>
        <mxCell id="oqrN8pZw_7ueJr-Q7pR7-21" value="consume order.created" style="text;html=1;align=center;verticalAlign=middle;resizable=0;points=[];autosize=1;strokeColor=none;fillColor=none;" vertex="1" parent="1">
          <mxGeometry x="425" y="498" width="150" height="30" as="geometry" />
        </mxCell>
      </root>
    </mxGraphModel>
  </diagram>
</mxfile>
